<svg width="50" height="50" viewBox="0 0 50 50" fill="none" xmlns="http://www.w3.org/2000/svg">
<path d="M44.6574 5.37921C43.6153 4.30966 42.073 3.9112 40.6349 4.33063L7.10032 14.0824C5.58303 14.504 4.50759 15.714 4.21789 17.2512C3.92193 18.8157 4.95569 20.8017 6.30624 21.6322L16.7918 28.0768C17.8672 28.7374 19.2553 28.5717 20.1452 27.6741L32.1522 15.5924C32.7567 14.9632 33.7571 14.9632 34.3615 15.5924C34.9659 16.2006 34.9659 17.1862 34.3615 17.8154L22.3336 29.8992C21.4416 30.7947 21.2749 32.1893 21.9314 33.2714L28.3382 43.8621C29.0885 45.1204 30.3807 45.8334 31.7979 45.8334C31.9647 45.8334 32.1522 45.8334 32.319 45.8124C33.9446 45.6027 35.2368 44.4912 35.7162 42.9184L45.6578 9.42673C46.0954 8.00066 45.6995 6.44876 44.6574 5.37921Z" fill="#FAFAFA"/>
</svg>
